<svg width="318" height="365" viewBox="0 0 318 365" fill="none" xmlns="http://www.w3.org/2000/svg">
<path d="M309 210C297.798 224.666 297.491 246.894 296 267.5C293.965 287.106 287.88 310.766 275 324C260.394 339.108 239.963 345.443 221 351C196.925 353.233 178.464 360.266 157.5 362C135.468 367.934 117.315 361.337 103.5 345.5C87.0053 329.229 74.415 317.255 51 311C32.2229 303.364 20.9687 292.848 13 271C10.5774 249.482 8.15173 232.905 11.5 213C12.8297 194.288 11.177 171.88 6.5 155C2.17816 133.348 -1.97162 115.921 11 100C25.1253 86.8597 30.8604 68.7382 48 52C60.0777 33.781 75.2652 24.0395 97.5 12.5C116.48 -1.19959 137.406 -2.80614 157.5 5.5C176.48 13.0685 198.616 16.8998 219 22.5C239.13 26.9317 253.534 38.4516 266 55.5C275.055 69.8655 283.001 89.4729 287 109C290.947 128.742 296.597 145.583 307 161C315.039 179.76 317.273 190.997 309 210Z" fill="#31DBFE"/>
<path d="M309 210C297.668 228.068 293.386 244.406 296 267.5M309 210C299.251 225.29 297.21 246.292 296 267.5M309 210C319.803 193.293 319.569 176.522 307 161M309 210C319.052 192.129 318.658 177.738 307 161M296 267.5C297.365 287.231 291.59 306.27 275 324M296 267.5C298.316 287.596 290.847 307.186 275 324M275 324C259.122 338.274 242.061 347.881 221 351M275 324C258.485 341.215 244.059 349.88 221 351M221 351C198.229 354.367 179.006 357.656 157.5 362M221 351C197.715 352.89 180.331 356.558 157.5 362M157.5 362C137.806 367.012 118.796 360.015 103.5 345.5M157.5 362C136.447 365.05 117.167 362.751 103.5 345.5M103.5 345.5C87.8113 327.713 69.1375 318.712 51 311M103.5 345.5C89.8047 328.273 73.053 318.274 51 311M51 311C30.8656 304.638 18.403 292.164 13 271M51 311C29.4296 304.753 20.5928 292.36 13 271M13 271C8.92515 251.289 6.29813 230.792 11.5 213M13 271C7.94558 250.168 9.37289 233.791 11.5 213M11.5 213C16.6123 193.17 13.5285 175.515 6.5 155M11.5 213C16.6932 192.946 13.2298 173.399 6.5 155M6.5 155C-2.45048 136.283 0.133292 116.585 11 100M6.5 155C1.0634 133.566 -1.61659 117.299 11 100M11 100C20.0258 85.2978 32.4848 68.2546 48 52M11 100C22.3635 83.3221 32.637 69.358 48 52M48 52C63.9969 36.8829 78.9555 23.6103 97.5 12.5M48 52C62.6175 37.0585 77.6439 25.0236 97.5 12.5M97.5 12.5C115.419 1.8745 138.251 -1.76216 157.5 5.5M97.5 12.5C117.1 -0.0631018 137.841 -1.60519 157.5 5.5M157.5 5.5C179.913 11.6086 200.411 17.8898 219 22.5M157.5 5.5C176.601 10.3686 200.247 18.4873 219 22.5M219 22.5C239.77 28.2545 256.14 38.152 266 55.5M219 22.5C237.628 29.1482 253 38.4998 266 55.5M266 55.5C276.611 71.1481 283.311 91.7772 287 109M266 55.5C279.272 73.1871 284.452 90.1478 287 109M287 109C287.892 129.459 298.297 144.351 307 161M287 109C291.707 126.58 295.508 145.53 307 161" stroke="#31DBFE"/>
</svg>
